<svg width="125" height="30" viewBox="0 0 125 30" fill="none" xmlns="http://www.w3.org/2000/svg">
<path d="M8.4375 13.7188C8.11458 13.7188 7.81771 13.625 7.54688 13.4375C7.28646 13.25 7.04167 13.0677 6.8125 12.8906V12.7969C6.82292 12.5156 6.77083 12.2396 6.65625 11.9688C6.54167 11.6979 6.38542 11.4583 6.1875 11.25C5.98958 11.0312 5.75521 10.8594 5.48438 10.7344C5.21354 10.599 4.92708 10.5312 4.625 10.5312C4.38542 10.5312 4.17708 10.6094 4 10.7656C3.83333 10.9219 3.69271 11.1146 3.57812 11.3438C3.46354 11.5625 3.38021 11.7969 3.32812 12.0469C3.27604 12.2969 3.25 12.5156 3.25 12.7031C3.25 13.026 3.34896 13.2865 3.54688 13.4844C3.74479 13.6823 3.97917 13.849 4.25 13.9844C4.53125 14.1198 4.81771 14.2396 5.10938 14.3438C5.41146 14.4375 5.66667 14.5417 5.875 14.6562C6.05208 14.75 6.20833 14.8698 6.34375 15.0156C6.47917 15.151 6.63542 15.276 6.8125 15.3906C6.98958 15.5052 7.17188 15.599 7.35938 15.6719C7.54688 15.7448 7.73438 15.8229 7.92188 15.9062C7.97396 16.0521 8.07292 16.1771 8.21875 16.2812C8.36458 16.375 8.47917 16.4948 8.5625 16.6406C8.59375 16.6927 8.64062 16.8177 8.70312 17.0156C8.77604 17.2135 8.84375 17.4271 8.90625 17.6562C8.97917 17.875 9.04167 18.0885 9.09375 18.2969C9.14583 18.4948 9.17188 18.625 9.17188 18.6875C9.17188 18.875 9.14062 19.0833 9.07812 19.3125C9.01562 19.5417 8.9375 19.776 8.84375 20.0156C8.75 20.2448 8.64583 20.4688 8.53125 20.6875C8.42708 20.9062 8.33333 21.1042 8.25 21.2812C8.09375 21.3021 7.95833 21.3542 7.84375 21.4375C7.73958 21.5104 7.63542 21.5938 7.53125 21.6875C7.42708 21.7708 7.3125 21.8438 7.1875 21.9062C7.0625 21.9688 6.90104 21.9948 6.70312 21.9844C6.52604 22.099 6.35938 22.2292 6.20312 22.375C6.05729 22.5104 5.88542 22.625 5.6875 22.7188V24.6719C5.6875 25.4427 5.67708 26.2031 5.65625 26.9531C5.64583 27.7031 5.61458 28.4583 5.5625 29.2188C5.21875 29.5104 4.82292 29.6562 4.375 29.6562C4.05208 29.6562 3.75 29.5729 3.46875 29.4062C3.1875 29.2396 2.98958 29.0052 2.875 28.7031C2.94792 28.3073 2.98958 27.8906 3 27.4531C3.01042 27.026 3.02083 26.5938 3.03125 26.1562C3.05208 25.7188 3.08854 25.2969 3.14062 24.8906C3.20312 24.474 3.32812 24.0885 3.51562 23.7344C3.46354 23.6823 3.42708 23.625 3.40625 23.5625C3.38542 23.4896 3.375 23.4219 3.375 23.3594C3.375 23.224 3.39583 23.099 3.4375 22.9844C3.48958 22.8594 3.54688 22.7396 3.60938 22.625C3.58854 22.5833 3.47396 22.5052 3.26562 22.3906C3.06771 22.276 2.84375 22.1562 2.59375 22.0312C2.34375 21.9062 2.10417 21.7969 1.875 21.7031C1.64583 21.6094 1.5 21.5625 1.4375 21.5625C1.40625 21.4062 1.33854 21.2812 1.23438 21.1875C1.13021 21.0833 1.02083 20.9792 0.90625 20.875C0.802083 20.7604 0.708333 20.625 0.625 20.4688C0.541667 20.3021 0.5 20.0781 0.5 19.7969C0.5 19.6719 0.505208 19.5417 0.515625 19.4062C0.536458 19.2708 0.572917 19.1354 0.625 19C0.791667 18.8229 0.984375 18.6875 1.20312 18.5938C1.43229 18.5 1.66667 18.4531 1.90625 18.4531C2.21875 18.4531 2.50521 18.5208 2.76562 18.6562C3.03646 18.7812 3.28646 18.9219 3.51562 19.0781C3.74479 19.2344 3.95833 19.3802 4.15625 19.5156C4.35417 19.6406 4.54167 19.7031 4.71875 19.7031C5.02083 19.7031 5.27083 19.6198 5.46875 19.4531C5.67708 19.276 5.78125 19.0417 5.78125 18.75C5.78125 18.4896 5.74479 18.2917 5.67188 18.1562C5.59896 18.0208 5.51042 17.9115 5.40625 17.8281C5.30208 17.7448 5.1875 17.6667 5.0625 17.5938C4.94792 17.5208 4.84896 17.4062 4.76562 17.25C4.56771 17.2188 4.39062 17.1719 4.23438 17.1094C4.07812 17.0469 3.90104 17.0156 3.70312 17.0156C3.60938 16.9531 3.54167 16.8958 3.5 16.8438C3.46875 16.7812 3.4375 16.7292 3.40625 16.6875C3.375 16.6458 3.32812 16.6146 3.26562 16.5938C3.20312 16.5625 3.10417 16.5469 2.96875 16.5469C2.92708 16.5469 2.86979 16.526 2.79688 16.4844C2.72396 16.4427 2.64062 16.3958 2.54688 16.3438C2.45312 16.2812 2.34896 16.2292 2.23438 16.1875C2.13021 16.1354 2.03125 16.1042 1.9375 16.0938C1.82292 15.8542 1.65625 15.651 1.4375 15.4844C1.21875 15.3177 1.01562 15.1458 0.828125 14.9688V14.875C0.838542 14.6771 0.802083 14.5 0.71875 14.3438C0.645833 14.1771 0.557292 14.0104 0.453125 13.8438C0.359375 13.6771 0.265625 13.5 0.171875 13.3125C0.0885417 13.1146 0.046875 12.8802 0.046875 12.6094C0.046875 12.2865 0.0833333 11.974 0.15625 11.6719C0.229167 11.3594 0.28125 11.0521 0.3125 10.75C0.322917 10.6042 0.354167 10.4844 0.40625 10.3906C0.46875 10.2865 0.53125 10.1927 0.59375 10.1094C0.666667 10.0156 0.723958 9.91667 0.765625 9.8125C0.817708 9.69792 0.838542 9.5625 0.828125 9.40625C1.11979 9.25 1.35938 9.06771 1.54688 8.85938C1.73438 8.65104 1.92188 8.45833 2.10938 8.28125C2.29688 8.10417 2.51562 7.95833 2.76562 7.84375C3.02604 7.72917 3.36979 7.69271 3.79688 7.73438C3.88021 7.64062 3.92188 7.53646 3.92188 7.42188C3.92188 7.29688 3.92188 7.16667 3.92188 7.03125C3.92188 6.45833 3.9375 5.88021 3.96875 5.29688C4 4.70312 4.01562 4.10938 4.01562 3.51562C4.01562 3.19271 3.99479 2.86979 3.95312 2.54688C3.91146 2.21354 3.89062 1.88542 3.89062 1.5625C3.89062 1.125 4.00521 0.755208 4.23438 0.453125C4.47396 0.151042 4.82812 0 5.29688 0C5.71354 0 6.00521 0.0572917 6.17188 0.171875C6.34896 0.276042 6.46875 0.411458 6.53125 0.578125C6.60417 0.744792 6.66146 0.932292 6.70312 1.14062C6.74479 1.34896 6.84375 1.55208 7 1.75C6.88542 2.11458 6.82812 2.47396 6.82812 2.82812C6.83854 3.17188 6.83333 3.54167 6.8125 3.9375C6.8125 4.03125 6.79167 4.13021 6.75 4.23438C6.71875 4.33854 6.70312 4.44271 6.70312 4.54688C6.70312 4.66146 6.71875 4.77083 6.75 4.875C6.79167 4.96875 6.8125 5.07292 6.8125 5.1875C6.8125 5.27083 6.78125 5.36979 6.71875 5.48438C6.66667 5.58854 6.63021 5.6875 6.60938 5.78125C6.55729 6.08333 6.53646 6.39583 6.54688 6.71875C6.56771 7.03125 6.54688 7.33854 6.48438 7.64062C6.52604 7.70312 6.61979 7.78125 6.76562 7.875C6.91146 7.96875 7.07292 8.06771 7.25 8.17188C7.4375 8.26562 7.61458 8.35938 7.78125 8.45312C7.94792 8.53646 8.07292 8.60938 8.15625 8.67188C8.19792 8.70312 8.24479 8.75521 8.29688 8.82812C8.34896 8.90104 8.40104 8.97917 8.45312 9.0625C8.50521 9.14583 8.55729 9.22917 8.60938 9.3125C8.67188 9.39583 8.72396 9.45833 8.76562 9.5C8.96354 9.73958 9.11979 9.94271 9.23438 10.1094C9.35938 10.2656 9.45312 10.4271 9.51562 10.5938C9.58854 10.75 9.63542 10.9375 9.65625 11.1562C9.67708 11.3646 9.6875 11.6354 9.6875 11.9688C9.6875 12.1771 9.67708 12.375 9.65625 12.5625C9.63542 12.75 9.58333 12.9323 9.5 13.1094C9.47917 13.151 9.41667 13.1823 9.3125 13.2031C9.20833 13.224 9.13021 13.2604 9.07812 13.3125C9.01562 13.375 8.97396 13.4323 8.95312 13.4844C8.93229 13.5365 8.90625 13.5781 8.875 13.6094C8.85417 13.6406 8.8125 13.6667 8.75 13.6875C8.6875 13.7083 8.58333 13.7188 8.4375 13.7188ZM27.875 19.2656C27.875 19.5365 27.8177 19.8438 27.7031 20.1875C27.599 20.5208 27.4427 20.776 27.2344 20.9531C27.2552 20.9948 27.2656 21.0573 27.2656 21.1406C27.2656 21.3073 27.2344 21.4583 27.1719 21.5938C27.1198 21.7188 27.0781 21.849 27.0469 21.9844C26.9323 22.3802 26.7708 22.7656 26.5625 23.1406C26.3542 23.5156 26.1094 23.8646 25.8281 24.1875C25.5469 24.5104 25.2344 24.8021 24.8906 25.0625C24.5573 25.3229 24.2083 25.5417 23.8438 25.7188C23.7708 25.75 23.7135 25.7917 23.6719 25.8438C23.6302 25.9062 23.5885 25.9688 23.5469 26.0312C23.5052 26.0938 23.4583 26.151 23.4062 26.2031C23.3646 26.2552 23.3073 26.2969 23.2344 26.3281C22.8177 26.474 22.401 26.6094 21.9844 26.7344C21.5677 26.8698 21.151 27.0104 20.7344 27.1562C20.6719 27.1771 20.6042 27.1927 20.5312 27.2031C20.4583 27.2135 20.3854 27.2344 20.3125 27.2656C20.2812 27.2969 20.25 27.3385 20.2188 27.3906C20.1979 27.4531 20.1562 27.4844 20.0938 27.4844C19.8021 27.4844 19.4479 27.474 19.0312 27.4531C18.625 27.4323 18.2031 27.401 17.7656 27.3594C17.3281 27.3177 16.9062 27.2656 16.5 27.2031C16.0938 27.151 15.7552 27.0938 15.4844 27.0312L15.2656 26.8438L15.0781 26.9375C14.7969 26.8958 14.5625 26.8438 14.375 26.7812C14.1875 26.7292 14.026 26.651 13.8906 26.5469C13.7552 26.4531 13.6406 26.3229 13.5469 26.1562C13.4635 25.9896 13.3854 25.7708 13.3125 25.5C13.2812 25.4062 13.2656 25.3073 13.2656 25.2031C13.2656 25.0885 13.25 24.9844 13.2188 24.8906C13.1562 24.7344 13.1094 24.6146 13.0781 24.5312C13.0573 24.4375 13.0417 24.349 13.0312 24.2656C13.0312 24.1823 13.0312 24.0938 13.0312 24C13.0312 23.8958 13.0312 23.7656 13.0312 23.6094C13.0312 23.3802 12.9896 23.1615 12.9062 22.9531C12.8333 22.7448 12.7969 22.526 12.7969 22.2969C12.7969 22.026 12.8333 21.7604 12.9062 21.5C12.9896 21.2396 13.0312 20.9635 13.0312 20.6719C13.0312 20.4948 12.9896 20.3333 12.9062 20.1875C12.8333 20.0312 12.7969 19.8698 12.7969 19.7031C12.7969 19.5781 12.8125 19.4583 12.8438 19.3438C12.875 19.2292 12.8906 19.1042 12.8906 18.9688C12.8906 18.7604 12.8542 18.5417 12.7812 18.3125C12.7083 18.0729 12.6406 17.8542 12.5781 17.6562C12.6927 17.4375 12.7656 17.2031 12.7969 16.9531C12.8385 16.7031 12.8594 16.4479 12.8594 16.1875C12.8594 15.6354 12.8125 15.0938 12.7188 14.5625C12.625 14.0208 12.5781 13.474 12.5781 12.9219C12.5781 12.651 12.6146 12.3906 12.6875 12.1406C12.7604 11.8906 12.7969 11.6302 12.7969 11.3594C12.7969 10.8594 12.75 10.3906 12.6562 9.95312C12.5625 9.51562 12.474 9.05729 12.3906 8.57812C12.4531 8.40104 12.5365 8.22396 12.6406 8.04688C12.7448 7.85938 12.7969 7.66146 12.7969 7.45312C12.7969 7.40104 12.7865 7.34896 12.7656 7.29688C12.7448 7.23438 12.724 7.17708 12.7031 7.125C12.7031 7.0625 12.7188 7.00521 12.75 6.95312C12.7812 6.90104 12.7969 6.84375 12.7969 6.78125C12.7969 6.54167 12.7448 6.3125 12.6406 6.09375C12.5365 5.86458 12.4844 5.61458 12.4844 5.34375C12.4844 5.20833 12.4948 5.04688 12.5156 4.85938C12.5469 4.66146 12.5781 4.46354 12.6094 4.26562C12.651 4.06771 12.6927 3.88021 12.7344 3.70312C12.7865 3.51562 12.8385 3.35938 12.8906 3.23438C12.9635 3.08854 13.0417 2.98438 13.125 2.92188C13.2188 2.85938 13.3125 2.78125 13.4062 2.6875L13.5 2.48438C13.6562 2.41146 13.8438 2.34896 14.0625 2.29688C14.2812 2.24479 14.5104 2.20312 14.75 2.17188C15 2.14062 15.2396 2.11458 15.4688 2.09375C15.7083 2.0625 15.9167 2.02604 16.0938 1.98438C16.3021 1.93229 16.5052 1.85938 16.7031 1.76562C16.901 1.66146 17.1146 1.59375 17.3438 1.5625C17.4896 1.54167 17.6406 1.53646 17.7969 1.54688C17.9531 1.55729 18.1094 1.5625 18.2656 1.5625C18.3698 1.5625 18.4635 1.5625 18.5469 1.5625C18.6406 1.5625 18.7188 1.53125 18.7812 1.46875C18.8125 1.46875 18.9167 1.48438 19.0938 1.51562C19.2812 1.53646 19.5 1.57292 19.75 1.625C20.0104 1.66667 20.2865 1.71875 20.5781 1.78125C20.8698 1.83333 21.1458 1.88542 21.4062 1.9375C21.6667 1.98958 21.8854 2.04167 22.0625 2.09375C22.25 2.13542 22.3646 2.16146 22.4062 2.17188C22.6562 2.29688 22.8802 2.46354 23.0781 2.67188C23.2865 2.88021 23.5104 3.06771 23.75 3.23438C23.9167 3.34896 24.099 3.46354 24.2969 3.57812C24.5052 3.68229 24.6979 3.80729 24.875 3.95312C25.0521 4.08854 25.1979 4.25 25.3125 4.4375C25.4375 4.61458 25.5 4.82812 25.5 5.07812C25.5521 5.21354 25.6406 5.3125 25.7656 5.375C25.901 5.42708 26.0156 5.5 26.1094 5.59375C26.1615 5.67708 26.2083 5.76562 26.25 5.85938C26.2917 5.94271 26.3542 6.02604 26.4375 6.10938C26.5312 6.44271 26.6042 6.77083 26.6562 7.09375C26.7188 7.40625 26.75 7.73958 26.75 8.09375C26.75 8.22917 26.7344 8.42188 26.7031 8.67188C26.6823 8.92188 26.6458 9.19792 26.5938 9.5C26.5417 9.79167 26.4792 10.099 26.4062 10.4219C26.3438 10.7448 26.2708 11.0521 26.1875 11.3438C26.1146 11.625 26.0365 11.8802 25.9531 12.1094C25.8698 12.3385 25.7865 12.5052 25.7031 12.6094C25.6615 12.6615 25.6094 12.6927 25.5469 12.7031C25.4844 12.7135 25.4271 12.7448 25.375 12.7969C25.1771 13.0156 25.0365 13.1667 24.9531 13.25C24.8698 13.3333 24.7969 13.3958 24.7344 13.4375C24.6719 13.4792 24.5938 13.5208 24.5 13.5625C24.4062 13.6042 24.25 13.7031 24.0312 13.8594C24.0625 14.0469 24.151 14.1771 24.2969 14.25C24.4531 14.3229 24.6094 14.3906 24.7656 14.4531C24.776 14.5573 24.8125 14.6354 24.875 14.6875C24.9479 14.7396 25.026 14.7812 25.1094 14.8125C25.1927 14.8333 25.276 14.8542 25.3594 14.875C25.4531 14.8958 25.5312 14.9271 25.5938 14.9688C25.6042 15.1146 25.6458 15.2188 25.7188 15.2812C25.8021 15.3438 25.8802 15.3958 25.9531 15.4375C26.0365 15.4792 26.1042 15.526 26.1562 15.5781C26.2083 15.6198 26.224 15.6927 26.2031 15.7969C26.2969 15.8177 26.375 15.8594 26.4375 15.9219C26.5104 15.974 26.5729 16.0312 26.625 16.0938C26.6875 16.1562 26.75 16.2188 26.8125 16.2812C26.875 16.3438 26.9531 16.3854 27.0469 16.4062V16.5781C27.026 16.7344 27.0365 16.8698 27.0781 16.9844C27.1302 17.0885 27.1875 17.1927 27.25 17.2969C27.3125 17.401 27.3698 17.5208 27.4219 17.6562C27.4844 17.7812 27.5156 17.9427 27.5156 18.1406C27.5156 18.1927 27.5156 18.2344 27.5156 18.2656C27.5156 18.2969 27.526 18.3385 27.5469 18.3906C27.6823 18.5052 27.7708 18.6458 27.8125 18.8125C27.8542 18.9688 27.875 19.1198 27.875 19.2656ZM23.4219 9.34375C23.4219 9.28125 23.3958 9.21354 23.3438 9.14062C23.2917 9.05729 23.2552 8.97396 23.2344 8.89062C23.2031 8.79688 23.1927 8.70312 23.2031 8.60938C23.224 8.50521 23.2344 8.39583 23.2344 8.28125C23.2344 8.27083 23.2031 8.21354 23.1406 8.10938C23.0781 7.99479 23.0104 7.875 22.9375 7.75C22.8646 7.625 22.7917 7.51042 22.7188 7.40625C22.6458 7.30208 22.6042 7.24479 22.5938 7.23438L22.625 7.09375C22.625 6.98958 22.5833 6.85938 22.5 6.70312C22.4167 6.54688 22.3177 6.39583 22.2031 6.25C22.0885 6.09375 21.9635 5.95833 21.8281 5.84375C21.6927 5.71875 21.5729 5.63542 21.4688 5.59375C21.3542 5.53125 21.2344 5.50521 21.1094 5.51562C20.9948 5.52604 20.8802 5.53125 20.7656 5.53125C20.6094 5.53125 20.4531 5.51042 20.2969 5.46875C20.151 5.41667 20.0052 5.36458 19.8594 5.3125C19.7135 5.25 19.5677 5.19792 19.4219 5.15625C19.276 5.10417 19.125 5.07812 18.9688 5.07812C18.8542 5.07812 18.7604 5.11458 18.6875 5.1875C18.6146 5.25 18.4948 5.28125 18.3281 5.28125C18.2135 5.28125 18.099 5.26562 17.9844 5.23438C17.8802 5.20312 17.7604 5.1875 17.625 5.1875C17.5417 5.26042 17.4375 5.3125 17.3125 5.34375C17.1979 5.375 17.0729 5.40104 16.9375 5.42188C16.8125 5.43229 16.6823 5.45312 16.5469 5.48438C16.4219 5.50521 16.3021 5.54167 16.1875 5.59375C16.1354 6.23958 16.0938 6.88021 16.0625 7.51562C16.0417 8.15104 16.0312 8.79167 16.0312 9.4375C16.0312 10.0938 16.0417 10.7552 16.0625 11.4219C16.0833 12.0885 16.0938 12.7604 16.0938 13.4375C16.1458 13.4583 16.1927 13.4688 16.2344 13.4688C16.2865 13.4688 16.3385 13.4688 16.3906 13.4688C16.651 13.4688 16.9062 13.4323 17.1562 13.3594C17.4062 13.2865 17.7135 13.25 18.0781 13.25C18.1615 13.25 18.224 13.2396 18.2656 13.2188C18.4635 13.1667 18.651 13.0677 18.8281 12.9219C19.0052 12.776 19.1927 12.6719 19.3906 12.6094C19.5885 12.5365 19.7812 12.5052 19.9688 12.5156C20.1562 12.5156 20.349 12.4792 20.5469 12.4062C20.6406 12.3646 20.724 12.3125 20.7969 12.25C20.8802 12.1875 20.9583 12.125 21.0312 12.0625C21.1146 11.9896 21.1979 11.9271 21.2812 11.875C21.3646 11.8229 21.4583 11.7865 21.5625 11.7656C21.7083 11.6198 21.8646 11.4948 22.0312 11.3906C22.1979 11.276 22.3854 11.1979 22.5938 11.1562C22.6875 11.0417 22.7292 10.9219 22.7188 10.7969C22.7188 10.6615 22.75 10.5365 22.8125 10.4219C22.8438 10.3594 22.9115 10.3281 23.0156 10.3281C23.1302 10.3177 23.2031 10.2865 23.2344 10.2344C23.2552 10.1823 23.2552 10.1354 23.2344 10.0938C23.2135 10.0521 23.2031 10.0156 23.2031 9.98438C23.2031 9.90104 23.2396 9.8125 23.3125 9.71875C23.3854 9.61458 23.4219 9.48958 23.4219 9.34375ZM24.4531 19.6094C24.3594 19.5365 24.2969 19.4531 24.2656 19.3594C24.2344 19.2656 24.2188 19.1719 24.2188 19.0781C24.2188 18.974 24.2188 18.8802 24.2188 18.7969C24.2188 18.7135 24.1979 18.6458 24.1562 18.5938C24.0625 18.4896 23.9844 18.4062 23.9219 18.3438C23.8698 18.2812 23.8125 18.1927 23.75 18.0781C23.7292 18.0573 23.6615 18.026 23.5469 17.9844C23.4323 17.9323 23.3594 17.8906 23.3281 17.8594C23.276 17.8281 23.2031 17.7708 23.1094 17.6875C23.0156 17.6042 22.9115 17.5208 22.7969 17.4375C22.6927 17.3542 22.5938 17.276 22.5 17.2031C22.4062 17.1198 22.3385 17.0677 22.2969 17.0469C22.2031 16.9844 22.0729 16.9635 21.9062 16.9844C21.75 16.9948 21.6042 16.974 21.4688 16.9219C21.375 16.8177 21.2448 16.7292 21.0781 16.6562C20.9115 16.5833 20.7344 16.5208 20.5469 16.4688C20.3594 16.4167 20.1719 16.3802 19.9844 16.3594C19.7969 16.3281 19.6302 16.3125 19.4844 16.3125C19.3698 16.3125 19.1667 16.3229 18.875 16.3438C18.5938 16.3542 18.2917 16.3698 17.9688 16.3906C17.6458 16.4115 17.3438 16.4375 17.0625 16.4688C16.7812 16.4896 16.599 16.5156 16.5156 16.5469C16.4323 16.9115 16.3698 17.2865 16.3281 17.6719C16.2969 18.0469 16.2812 18.4167 16.2812 18.7812C16.2812 19.4062 16.3125 20.0312 16.375 20.6562C16.4479 21.2812 16.526 21.9062 16.6094 22.5312C16.5573 22.6146 16.5156 22.6979 16.4844 22.7812C16.4635 22.8542 16.4531 22.9479 16.4531 23.0625C16.4531 23.1667 16.4583 23.2656 16.4688 23.3594C16.4792 23.4531 16.4948 23.5469 16.5156 23.6406C16.6927 23.724 16.8802 23.7812 17.0781 23.8125C17.276 23.8333 17.4688 23.8438 17.6562 23.8438C17.9167 23.8438 18.1719 23.8281 18.4219 23.7969C18.6823 23.7656 18.9427 23.7344 19.2031 23.7031C19.4635 23.6719 19.7188 23.651 19.9688 23.6406C20.2292 23.6198 20.4844 23.6198 20.7344 23.6406C20.776 23.5677 20.8333 23.5156 20.9062 23.4844C20.9792 23.4427 21.0521 23.4115 21.125 23.3906C21.1979 23.3698 21.2708 23.349 21.3438 23.3281C21.4271 23.3073 21.5 23.276 21.5625 23.2344C21.6979 23.151 21.8073 23.0521 21.8906 22.9375C21.9844 22.8229 22.0781 22.7188 22.1719 22.625H22.9062C23.0521 22.4167 23.2135 22.2188 23.3906 22.0312C23.5781 21.8333 23.7604 21.6458 23.9375 21.4688C24.0208 21.3229 24.0625 21.1719 24.0625 21.0156C24.0729 20.8594 24.1042 20.7031 24.1562 20.5469C24.2083 20.3802 24.2708 20.2292 24.3438 20.0938C24.4167 19.9479 24.4531 19.7865 24.4531 19.6094ZM45.5156 22.1094C45.5781 22.3281 45.6094 22.5417 45.6094 22.75C45.6094 23.0104 45.5625 23.2552 45.4688 23.4844C45.3854 23.7135 45.2969 23.9479 45.2031 24.1875C45.0885 24.2812 44.9583 24.3542 44.8125 24.4062C44.6667 24.4583 44.5312 24.526 44.4062 24.6094C44.1875 24.7344 44 24.8229 43.8438 24.875C43.6979 24.9271 43.5521 24.9583 43.4062 24.9688C43.2604 24.9792 43.1042 24.9792 42.9375 24.9688C42.7708 24.9583 42.5625 24.9531 42.3125 24.9531C41.9271 24.9531 41.5729 25 41.25 25.0938C40.9375 25.1771 40.6458 25.2188 40.375 25.2188C40.1042 25.2188 39.8177 25.1979 39.5156 25.1562C39.224 25.1042 38.9323 25.0781 38.6406 25.0781C38.4635 25.0781 38.2917 25.099 38.125 25.1406C37.9688 25.1719 37.8073 25.2292 37.6406 25.3125C37.4844 25.3125 37.3385 25.2656 37.2031 25.1719C37.0781 25.0677 36.9271 25.0156 36.75 25.0156C36.6562 25.0156 36.5729 25.0312 36.5 25.0625C36.4271 25.0938 36.3385 25.1094 36.2344 25.1094C36.0573 25.1094 35.8906 25.0729 35.7344 25C35.5885 24.9271 35.4271 24.8906 35.25 24.8906C34.9896 24.8906 34.7188 24.9479 34.4375 25.0625C34.1562 25.1667 33.8698 25.2188 33.5781 25.2188C33.4115 25.2188 33.2604 25.1823 33.125 25.1094C33 25.0365 32.875 24.9479 32.75 24.8438C32.6354 24.7292 32.526 24.6146 32.4219 24.5C32.3177 24.3854 32.2031 24.2812 32.0781 24.1875C32.0573 24.0625 32.0052 23.8646 31.9219 23.5938C31.849 23.3229 31.7708 23.0417 31.6875 22.75C31.6042 22.4583 31.5312 22.1875 31.4688 21.9375C31.4062 21.6875 31.375 21.5208 31.375 21.4375C31.375 21.3229 31.3906 21.2135 31.4219 21.1094C31.4531 20.9948 31.4688 20.8802 31.4688 20.7656C31.4688 20.6198 31.4427 20.4844 31.3906 20.3594C31.3385 20.224 31.3125 20.0833 31.3125 19.9375C31.3125 19.9062 31.3125 19.8073 31.3125 19.6406C31.3229 19.474 31.3281 19.2969 31.3281 19.1094C31.3385 18.9115 31.3438 18.7292 31.3438 18.5625C31.3542 18.3958 31.3646 18.2969 31.375 18.2656C31.3542 18.1198 31.3125 17.9844 31.25 17.8594C31.1979 17.724 31.1458 17.5833 31.0938 17.4375C31.1979 16.8646 31.2552 16.3229 31.2656 15.8125C31.276 15.2917 31.2812 14.7344 31.2812 14.1406C31.2812 14.0885 31.2552 14.0521 31.2031 14.0312C31.151 14 31.0885 13.9792 31.0156 13.9688C30.9531 13.9583 30.8854 13.9531 30.8125 13.9531C30.75 13.9531 30.7031 13.9531 30.6719 13.9531C30.6094 13.9531 30.5417 13.9479 30.4688 13.9375C30.3958 13.9271 30.3333 13.8854 30.2812 13.8125C30.0938 13.7604 29.9323 13.6667 29.7969 13.5312C29.6719 13.3854 29.5365 13.2448 29.3906 13.1094V12.9219C29.3802 12.7448 29.3958 12.5781 29.4375 12.4219C29.4896 12.2552 29.5417 12.0938 29.5938 11.9375C29.6562 11.7708 29.7135 11.6094 29.7656 11.4531C29.8177 11.2865 29.8542 11.1146 29.875 10.9375C29.9688 10.875 30.0677 10.8333 30.1719 10.8125C30.276 10.7812 30.3125 10.6875 30.2812 10.5312C30.3854 10.4479 30.5208 10.4115 30.6875 10.4219C30.8646 10.4219 31.0104 10.4219 31.125 10.4219H31.1875C31.2188 10.3073 31.2344 10.1979 31.2344 10.0938C31.2448 9.97917 31.25 9.86458 31.25 9.75C31.25 9.20833 31.1979 8.67188 31.0938 8.14062C31 7.60938 30.9531 7.07292 30.9531 6.53125C30.9531 6.375 30.9792 6.15625 31.0312 5.875C31.0833 5.58333 31.1458 5.28646 31.2188 4.98438C31.2917 4.67188 31.3698 4.375 31.4531 4.09375C31.5365 3.80208 31.6042 3.57812 31.6562 3.42188C31.9479 3.36979 32.2188 3.28646 32.4688 3.17188C32.7292 3.05729 32.9948 3 33.2656 3C33.4219 3 33.5833 3.01562 33.75 3.04688C33.9167 3.07812 34.0729 3.09375 34.2188 3.09375C34.3646 3.09375 34.4948 3.07812 34.6094 3.04688C34.724 3.01562 34.8438 2.98438 34.9688 2.95312C35.0938 2.92188 35.2344 2.89062 35.3906 2.85938C35.5469 2.82812 35.7344 2.8125 35.9531 2.8125C36.7865 2.8125 37.6302 2.77604 38.4844 2.70312C39.349 2.61979 40.2031 2.50521 41.0469 2.35938C41.099 2.35938 41.1458 2.34896 41.1875 2.32812C41.2396 2.30729 41.2969 2.29688 41.3594 2.29688C41.3906 2.29688 41.4219 2.32292 41.4531 2.375C41.4948 2.41667 41.526 2.45312 41.5469 2.48438C41.6094 2.45312 41.6823 2.4375 41.7656 2.4375C41.8594 2.42708 41.9479 2.42188 42.0312 2.42188C42.3333 2.42188 42.6354 2.46875 42.9375 2.5625C43.2396 2.64583 43.5365 2.71875 43.8281 2.78125C43.8802 2.98958 43.9271 3.19271 43.9688 3.39062C44.0208 3.58854 44.0469 3.79167 44.0469 4C44.0469 4.35417 43.9948 4.61979 43.8906 4.79688C43.7865 4.96354 43.6562 5.09896 43.5 5.20312C43.3438 5.29688 43.1771 5.39062 43 5.48438C42.8229 5.56771 42.6615 5.70312 42.5156 5.89062H42.2812C41.8958 5.84896 41.5104 5.85417 41.125 5.90625C40.7396 5.95833 40.349 5.98438 39.9531 5.98438C39.7969 5.98438 39.6562 6 39.5312 6.03125C39.4167 6.05208 39.3073 6.08333 39.2031 6.125C39.1094 6.16667 39.0104 6.21354 38.9062 6.26562C38.8021 6.30729 38.6823 6.34896 38.5469 6.39062C38.3802 6.35938 38.224 6.33854 38.0781 6.32812C37.9323 6.30729 37.776 6.29688 37.6094 6.29688C37.0677 6.29688 36.5417 6.35938 36.0312 6.48438C35.5208 6.60938 35.0052 6.6875 34.4844 6.71875C34.3906 6.84375 34.3438 6.97917 34.3438 7.125C34.3438 7.32292 34.375 7.51562 34.4375 7.70312C34.5104 7.88021 34.5573 8.0625 34.5781 8.25C34.5885 8.4375 34.5885 8.63542 34.5781 8.84375C34.5781 9.04167 34.5781 9.23958 34.5781 9.4375C34.5885 9.63542 34.6094 9.82812 34.6406 10.0156C34.6823 10.2031 34.7552 10.375 34.8594 10.5312C34.9219 10.5521 34.9896 10.5677 35.0625 10.5781C35.1458 10.5885 35.2292 10.5938 35.3125 10.5938C35.5729 10.5938 35.8333 10.5677 36.0938 10.5156C36.3646 10.4531 36.625 10.4219 36.875 10.4219C37.2917 10.4219 37.6979 10.4792 38.0938 10.5938C38.5 10.6979 38.9167 10.75 39.3438 10.75C39.4375 10.75 39.5312 10.7292 39.625 10.6875C39.7292 10.6458 39.8385 10.625 39.9531 10.625C40.0052 10.625 40.0573 10.6458 40.1094 10.6875C40.1615 10.7292 40.2344 10.75 40.3281 10.75C40.474 10.75 40.6094 10.7135 40.7344 10.6406C40.8594 10.5677 41.0052 10.5312 41.1719 10.5312C41.3073 10.5312 41.4323 10.5625 41.5469 10.625C41.6719 10.6771 41.7917 10.7448 41.9062 10.8281C42.0208 10.901 42.1354 10.974 42.25 11.0469C42.3646 11.1094 42.4844 11.1458 42.6094 11.1562C42.6094 11.3646 42.6615 11.5625 42.7656 11.75C42.8698 11.9375 42.9219 12.1354 42.9219 12.3438C42.9219 12.5104 42.8594 12.6875 42.7344 12.875C42.6094 13.0521 42.4583 13.2188 42.2812 13.375C42.1042 13.5312 41.9167 13.6719 41.7188 13.7969C41.5312 13.9219 41.3698 14.0052 41.2344 14.0469C41.151 14.0677 41.0677 14.0729 40.9844 14.0625C40.9115 14.0521 40.8438 14.0469 40.7812 14.0469C40.6458 14.0469 40.5104 14.0677 40.375 14.1094C40.2396 14.151 40.1042 14.1979 39.9688 14.25C39.8438 14.3021 39.7083 14.349 39.5625 14.3906C39.4271 14.4323 39.2812 14.4531 39.125 14.4531C38.8958 14.4531 38.6667 14.4375 38.4375 14.4062C38.2188 14.375 37.9896 14.3594 37.75 14.3594C37.6146 14.3594 37.4896 14.375 37.375 14.4062C37.2604 14.4375 37.1354 14.4531 37 14.4531C36.8854 14.4531 36.75 14.4271 36.5938 14.375C36.4375 14.3229 36.2812 14.2656 36.125 14.2031C35.9688 14.1406 35.8229 14.0833 35.6875 14.0312C35.5521 13.9792 35.4479 13.9531 35.375 13.9531C35.3333 13.9531 35.2969 13.9688 35.2656 14C35.2448 14.0208 35.2188 14.0469 35.1875 14.0781C35.1667 14.099 35.1354 14.1198 35.0938 14.1406C35.0625 14.1615 35.0156 14.1615 34.9531 14.1406C34.901 14.2344 34.8646 14.3333 34.8438 14.4375C34.8333 14.5312 34.8281 14.625 34.8281 14.7188C34.8281 14.9271 34.849 15.1302 34.8906 15.3281C34.9323 15.5156 34.9531 15.7083 34.9531 15.9062C34.9531 16.0521 34.9323 16.2031 34.8906 16.3594C34.849 16.5052 34.8281 16.651 34.8281 16.7969C34.8281 16.9323 34.849 17.125 34.8906 17.375C34.9323 17.6146 34.9792 17.8698 35.0312 18.1406C35.0938 18.4115 35.1458 18.6875 35.1875 18.9688C35.2292 19.2396 35.25 19.474 35.25 19.6719C35.25 19.9948 35.2344 20.3177 35.2031 20.6406C35.1719 20.9531 35.1562 21.2708 35.1562 21.5938C35.4479 21.6771 35.7344 21.7292 36.0156 21.75C36.2969 21.7708 36.5833 21.7812 36.875 21.7812C37.5625 21.7812 38.2552 21.7396 38.9531 21.6562C39.651 21.5729 40.349 21.5208 41.0469 21.5C41.2656 21.5 41.4792 21.5052 41.6875 21.5156C41.9062 21.526 42.125 21.5312 42.3438 21.5312C42.6042 21.5312 42.849 21.474 43.0781 21.3594C43.3073 21.2448 43.5365 21.1875 43.7656 21.1875C44.1615 21.1875 44.4479 21.3646 44.625 21.7188L44.75 21.6875C44.8438 21.6771 44.9219 21.6875 44.9844 21.7188C45.0469 21.75 45.1042 21.7865 45.1562 21.8281C45.2188 21.8698 45.276 21.9167 45.3281 21.9688C45.3802 22.0208 45.4427 22.0677 45.5156 22.1094ZM65.0156 22.2344C65.0156 22.3594 64.9583 22.4688 64.8438 22.5625C64.7396 22.6562 64.6562 22.75 64.5938 22.8438C64.5417 22.9062 64.5208 22.974 64.5312 23.0469C64.5417 23.1198 64.5312 23.1927 64.5 23.2656C64.4479 23.3177 64.3854 23.349 64.3125 23.3594C64.25 23.3698 64.2031 23.401 64.1719 23.4531C64.1094 23.5365 64.0521 23.6354 64 23.75C63.9479 23.8646 63.8906 23.9792 63.8281 24.0938C63.776 24.1979 63.7083 24.2969 63.625 24.3906C63.5521 24.4844 63.4583 24.5573 63.3438 24.6094C63.2812 24.6406 63.2083 24.6615 63.125 24.6719C63.0521 24.6719 62.974 24.6719 62.8906 24.6719C62.6719 24.6719 62.4323 24.6354 62.1719 24.5625C61.9219 24.4896 61.724 24.3646 61.5781 24.1875C61.5156 24.1562 61.4167 24.1198 61.2812 24.0781C61.1562 24.026 61.0208 23.9792 60.875 23.9375C60.7396 23.8854 60.6094 23.8385 60.4844 23.7969C60.3594 23.7448 60.276 23.7031 60.2344 23.6719C60.1823 23.6198 60.1354 23.5417 60.0938 23.4375C60.0521 23.3229 60.0052 23.2292 59.9531 23.1562C59.8906 23.0729 59.8177 23.0052 59.7344 22.9531C59.651 22.901 59.5833 22.8333 59.5312 22.75C59.4688 22.6562 59.4271 22.5521 59.4062 22.4375C59.3958 22.3125 59.3646 22.2031 59.3125 22.1094C59.1875 21.8385 59.0208 21.5781 58.8125 21.3281C58.6042 21.0677 58.3958 20.8177 58.1875 20.5781C58.0729 20.4427 57.9115 20.2865 57.7031 20.1094C57.4948 19.9323 57.349 19.776 57.2656 19.6406C57.2344 19.5781 57.2188 19.5104 57.2188 19.4375C57.2188 19.3646 57.2031 19.2969 57.1719 19.2344C57.1094 19.0885 57.0312 18.9583 56.9375 18.8438C56.8438 18.7188 56.7812 18.5677 56.75 18.3906C56.625 18.2031 56.4688 18.0417 56.2812 17.9062C56.1042 17.7604 55.9531 17.5833 55.8281 17.375C55.6823 17.1458 55.5156 16.9375 55.3281 16.75C55.151 16.5521 54.974 16.3594 54.7969 16.1719C54.6302 15.974 54.4792 15.7656 54.3438 15.5469C54.2083 15.3281 54.1146 15.0729 54.0625 14.7812C53.8021 14.5104 53.5208 14.2552 53.2188 14.0156C52.9167 13.7656 52.6875 13.474 52.5312 13.1406C52.4479 12.9948 52.3802 12.8698 52.3281 12.7656C52.276 12.651 52.2135 12.5521 52.1406 12.4688C52.0677 12.3854 51.9792 12.3073 51.875 12.2344C51.7812 12.1615 51.6458 12.0833 51.4688 12C51.4375 12.1771 51.4167 12.3594 51.4062 12.5469C51.4062 12.724 51.4062 12.901 51.4062 13.0781C51.4062 13.6406 51.4375 14.1979 51.5 14.75C51.5625 15.2917 51.5938 15.8438 51.5938 16.4062C51.5938 16.6042 51.5729 16.7917 51.5312 16.9688C51.4896 17.1458 51.4688 17.3229 51.4688 17.5C51.4688 17.7917 51.5 18.0781 51.5625 18.3594C51.6354 18.6302 51.6719 18.9115 51.6719 19.2031C51.6719 19.2865 51.6823 19.3542 51.7031 19.4062C51.724 19.4583 51.75 19.5052 51.7812 19.5469C51.8125 19.5781 51.8385 19.6146 51.8594 19.6562C51.8802 19.6875 51.8906 19.7344 51.8906 19.7969C51.8906 19.9635 51.875 20.125 51.8438 20.2812C51.8125 20.4375 51.7969 20.599 51.7969 20.7656C51.7969 20.849 51.8125 20.9635 51.8438 21.1094C51.8854 21.2552 51.9323 21.4062 51.9844 21.5625C52.0365 21.7188 52.0885 21.8698 52.1406 22.0156C52.2031 22.151 52.2604 22.2552 52.3125 22.3281C52.2292 22.5052 52.1562 22.6719 52.0938 22.8281C52.0312 22.974 51.9792 23.125 51.9375 23.2812C51.9062 23.4271 51.8854 23.5833 51.875 23.75C51.8646 23.9062 51.8698 24.0833 51.8906 24.2812C51.8385 24.3646 51.7188 24.4792 51.5312 24.625C51.3438 24.7604 51.1354 24.8958 50.9062 25.0312C50.6771 25.1667 50.4583 25.2865 50.25 25.3906C50.0417 25.4844 49.8958 25.5312 49.8125 25.5312C49.7188 25.5312 49.6458 25.5208 49.5938 25.5C49.5417 25.4896 49.5 25.4688 49.4688 25.4375C49.4375 25.4062 49.401 25.375 49.3594 25.3438C49.3281 25.3021 49.276 25.2604 49.2031 25.2188C49.1406 25.1667 49.0521 25.1354 48.9375 25.125C48.8333 25.1042 48.75 25.0677 48.6875 25.0156C48.5938 24.9323 48.4896 24.7917 48.375 24.5938C48.2708 24.3854 48.1719 24.1667 48.0781 23.9375C47.9948 23.7083 47.9219 23.4844 47.8594 23.2656C47.7969 23.0469 47.7656 22.875 47.7656 22.75C47.7656 22.5833 47.8073 22.4219 47.8906 22.2656C47.9844 22.1094 48.0469 21.9583 48.0781 21.8125C48.1302 21.5417 48.1719 21.2396 48.2031 20.9062C48.2448 20.5729 48.2656 20.2604 48.2656 19.9688C48.2656 19.6771 48.2031 19.3958 48.0781 19.125C48.1406 18.9375 48.1823 18.7448 48.2031 18.5469C48.224 18.3385 48.2344 18.1406 48.2344 17.9531C48.2344 17.5469 48.1927 17.1146 48.1094 16.6562C48.026 16.1875 47.8802 15.776 47.6719 15.4219C47.6823 15.2448 47.7135 15.0781 47.7656 14.9219C47.8281 14.7552 47.8906 14.5938 47.9531 14.4375C48.0156 14.2812 48.0781 14.125 48.1406 13.9688C48.2031 13.8021 48.2448 13.6354 48.2656 13.4688C48.3177 13.2083 48.3281 12.9531 48.2969 12.7031C48.276 12.4531 48.2656 12.2083 48.2656 11.9688C48.2656 11.8333 48.276 11.7188 48.2969 11.625C48.3177 11.5208 48.3542 11.4115 48.4062 11.2969C48.3854 11.151 48.3438 11.0104 48.2812 10.875C48.2292 10.7396 48.1927 10.599 48.1719 10.4531C48.151 10.2969 48.1458 10.1406 48.1562 9.98438C48.1667 9.81771 48.1719 9.64583 48.1719 9.46875C48.1719 9.27083 48.1562 9.08333 48.125 8.90625C48.0938 8.72917 48.0781 8.54167 48.0781 8.34375C48.0781 8.1875 48.1094 8.04167 48.1719 7.90625C48.2344 7.76042 48.2656 7.60938 48.2656 7.45312C48.2656 7.08854 48.2292 6.72396 48.1562 6.35938C48.0833 5.98438 48.0469 5.61458 48.0469 5.25C48.0469 4.98958 48.1406 4.75 48.3281 4.53125C48.526 4.30208 48.7188 4.11458 48.9062 3.96875C49.625 4.05208 50.2396 4.27083 50.75 4.625C51.2708 4.97917 51.6198 5.51562 51.7969 6.23438C51.8073 6.30729 51.8281 6.35938 51.8594 6.39062C51.8906 6.41146 51.9219 6.42708 51.9531 6.4375C51.9948 6.4375 52.0365 6.44271 52.0781 6.45312C52.1198 6.46354 52.1615 6.48958 52.2031 6.53125C52.276 6.61458 52.3125 6.70312 52.3125 6.79688C52.3229 6.89062 52.3542 6.97917 52.4062 7.0625C52.5729 7.26042 52.6875 7.38021 52.75 7.42188C52.8229 7.45312 52.8802 7.48438 52.9219 7.51562C52.974 7.54688 53.0312 7.61979 53.0938 7.73438C53.1667 7.83854 53.2865 8.0625 53.4531 8.40625C53.6094 8.5625 53.75 8.73438 53.875 8.92188C54.0104 9.09896 54.1406 9.28125 54.2656 9.46875C54.401 9.65625 54.5417 9.83854 54.6875 10.0156C54.8333 10.1823 55 10.3281 55.1875 10.4531C55.2083 10.5885 55.2448 10.7135 55.2969 10.8281C55.349 10.9427 55.3854 11.0677 55.4062 11.2031C55.4479 11.276 55.5417 11.401 55.6875 11.5781C55.8438 11.7448 56 11.9219 56.1562 12.1094C56.3229 12.2865 56.4688 12.4531 56.5938 12.6094C56.7188 12.7552 56.7812 12.8385 56.7812 12.8594C56.7812 12.901 56.8021 12.9219 56.8438 12.9219C56.9896 12.9844 57.1146 13.0677 57.2188 13.1719C57.3333 13.276 57.4531 13.375 57.5781 13.4688C57.7135 13.9375 57.9375 14.3438 58.25 14.6875C58.5625 15.0312 58.9167 15.3385 59.3125 15.6094C59.3229 15.724 59.3542 15.8281 59.4062 15.9219C59.4583 16.0052 59.5156 16.0885 59.5781 16.1719C59.651 16.2448 59.7188 16.3229 59.7812 16.4062C59.8542 16.4896 59.9115 16.5781 59.9531 16.6719C59.9844 16.7344 60 16.7969 60 16.8594C60 16.9219 60.0156 16.9844 60.0469 17.0469C60.0781 17.1198 60.125 17.1771 60.1875 17.2188C60.2604 17.2604 60.3229 17.3125 60.375 17.375C60.4167 17.4479 60.4479 17.5365 60.4688 17.6406C60.5 17.7344 60.5312 17.8333 60.5625 17.9375C60.6042 18.0312 60.6562 18.1146 60.7188 18.1875C60.7812 18.25 60.8698 18.2865 60.9844 18.2969C61.0469 18.1406 61.0781 17.9583 61.0781 17.75C61.0781 17.5312 61.0521 17.3177 61 17.1094C60.9479 16.901 60.8854 16.6927 60.8125 16.4844C60.75 16.2656 60.6927 16.0521 60.6406 15.8438C60.5885 15.6354 60.5625 15.4219 60.5625 15.2031C60.5625 15.0573 60.599 14.9219 60.6719 14.7969C60.7448 14.6719 60.7812 14.5365 60.7812 14.3906C60.7812 14.2448 60.75 14.1042 60.6875 13.9688C60.625 13.8229 60.5833 13.6875 60.5625 13.5625C60.5208 13.3229 60.5 13.0573 60.5 12.7656C60.5104 12.4635 60.5104 12.1615 60.5 11.8594C60.4896 11.5573 60.4583 11.2656 60.4062 10.9844C60.3646 10.7031 60.276 10.4635 60.1406 10.2656C60.1615 10.2031 60.1719 10.1406 60.1719 10.0781C60.1719 10.0156 60.1719 9.95312 60.1719 9.89062C60.1719 9.61979 60.151 9.34375 60.1094 9.0625C60.0677 8.77083 60.0469 8.47917 60.0469 8.1875C60.0469 7.97917 60.0677 7.77083 60.1094 7.5625C60.151 7.34375 60.2396 7.13542 60.375 6.9375C60.3438 6.72917 60.2708 6.55208 60.1562 6.40625C60.0521 6.26042 59.9531 6.09896 59.8594 5.92188C59.8594 5.86979 59.8646 5.82292 59.875 5.78125C59.8854 5.72917 59.8906 5.67708 59.8906 5.625C59.8906 5.52083 59.875 5.41146 59.8438 5.29688C59.8125 5.18229 59.776 5.07292 59.7344 4.96875C59.7031 4.85417 59.6719 4.73958 59.6406 4.625C59.6198 4.51042 59.6146 4.39583 59.625 4.28125V4.0625L59.7344 3.96875C59.7344 3.86458 59.7292 3.77083 59.7188 3.6875C59.7083 3.60417 59.7031 3.51562 59.7031 3.42188C59.7031 3.24479 59.776 3.07292 59.9219 2.90625C60.0781 2.72917 60.2604 2.57292 60.4688 2.4375C60.6771 2.29167 60.8906 2.17708 61.1094 2.09375C61.3385 2 61.5312 1.95312 61.6875 1.95312C61.7917 1.95312 61.8958 1.97917 62 2.03125C62.1042 2.08333 62.2031 2.14062 62.2969 2.20312C62.401 2.26562 62.5 2.32812 62.5938 2.39062C62.6979 2.45312 62.8073 2.5 62.9219 2.53125C63.026 2.77083 63.1667 2.97917 63.3438 3.15625C63.5208 3.32292 63.6615 3.51562 63.7656 3.73438C63.8073 3.83854 63.8281 3.95833 63.8281 4.09375C63.8385 4.21875 63.8438 4.35417 63.8438 4.5C63.8438 4.63542 63.849 4.77604 63.8594 4.92188C63.8802 5.05729 63.9219 5.1875 63.9844 5.3125C63.9219 5.39583 63.8802 5.5 63.8594 5.625C63.8385 5.73958 63.8281 5.86458 63.8281 6C63.8281 6.13542 63.8333 6.27083 63.8438 6.40625C63.8542 6.53125 63.8594 6.64583 63.8594 6.75C63.8594 6.83333 63.8438 6.90104 63.8125 6.95312C63.7812 7.00521 63.7656 7.07292 63.7656 7.15625C63.7656 7.22917 63.7812 7.28646 63.8125 7.32812C63.8438 7.35938 63.8594 7.40104 63.8594 7.45312C63.8594 7.54688 63.8333 7.65625 63.7812 7.78125C63.7292 7.89583 63.6927 8 63.6719 8.09375C63.6302 8.27083 63.6042 8.44792 63.5938 8.625C63.5938 8.79167 63.5938 8.95312 63.5938 9.10938C63.5938 9.60938 63.6458 10.0833 63.75 10.5312C63.8542 10.9792 63.9323 11.4375 63.9844 11.9062C64.0052 12.2292 64.0156 12.5521 64.0156 12.875C64.0156 13.1875 64.0104 13.5052 64 13.8281C64 14.1406 64 14.4531 64 14.7656C64.0104 15.0781 64.0365 15.3906 64.0781 15.7031C64.1198 16.0781 64.1667 16.3802 64.2188 16.6094C64.2812 16.8385 64.3385 17.0625 64.3906 17.2812C64.4427 17.4896 64.4896 17.724 64.5312 17.9844C64.5729 18.2448 64.5938 18.5938 64.5938 19.0312C64.5938 19.3229 64.625 19.6094 64.6875 19.8906C64.75 20.1615 64.7812 20.4427 64.7812 20.7344C64.7812 20.9219 64.8177 21.1042 64.8906 21.2812C64.974 21.4479 65.0156 21.625 65.0156 21.8125V21.9219L64.9062 22.1094C64.9792 22.1094 65.0156 22.151 65.0156 22.2344ZM83.2969 9.28125C83.2969 9.60417 83.2812 9.91667 83.25 10.2188C83.2188 10.5208 83.1615 10.8229 83.0781 11.125C82.7865 11.3229 82.4688 11.4635 82.125 11.5469C81.7917 11.6302 81.4479 11.6719 81.0938 11.6719C81.0104 11.6719 80.9271 11.6667 80.8438 11.6562C80.7708 11.6458 80.6927 11.6406 80.6094 11.6406C80.5365 11.474 80.4635 11.3698 80.3906 11.3281C80.3177 11.276 80.25 11.2292 80.1875 11.1875C80.1354 11.1458 80.0885 11.0781 80.0469 10.9844C80.0156 10.8906 80 10.7135 80 10.4531C80 10.2969 79.9688 10.1927 79.9062 10.1406C79.8438 10.0885 79.8021 10.0052 79.7812 9.89062C79.7188 9.51562 79.6927 9.23438 79.7031 9.04688C79.724 8.84896 79.7344 8.66667 79.7344 8.5C79.7448 8.33333 79.7188 8.14583 79.6562 7.9375C79.6042 7.71875 79.474 7.40625 79.2656 7C79.2344 6.9375 79.2031 6.84896 79.1719 6.73438C79.1406 6.60938 79.099 6.52604 79.0469 6.48438C78.9948 6.43229 78.9167 6.38021 78.8125 6.32812C78.7083 6.26562 78.5938 6.20833 78.4688 6.15625C78.3438 6.09375 78.224 6.04167 78.1094 6C77.9948 5.94792 77.901 5.90104 77.8281 5.85938C77.7448 5.81771 77.6458 5.76562 77.5312 5.70312C77.4271 5.63021 77.3125 5.5625 77.1875 5.5C77.0625 5.42708 76.9427 5.36979 76.8281 5.32812C76.7135 5.27604 76.6094 5.25 76.5156 5.25C76.401 5.25 76.2917 5.26562 76.1875 5.29688C76.0833 5.32812 75.9688 5.34375 75.8438 5.34375C75.7292 5.34375 75.6146 5.32812 75.5 5.29688C75.3958 5.26562 75.2865 5.25 75.1719 5.25C75.0365 5.25 74.8542 5.28646 74.625 5.35938C74.4062 5.43229 74.1667 5.53125 73.9062 5.65625C73.6562 5.77083 73.3958 5.90625 73.125 6.0625C72.8646 6.20833 72.6146 6.36458 72.375 6.53125C72.1458 6.6875 71.9427 6.84375 71.7656 7C71.599 7.15625 71.4844 7.29688 71.4219 7.42188C71.3177 7.61979 71.2448 7.82812 71.2031 8.04688C71.1719 8.26562 71.1406 8.48438 71.1094 8.70312C71.0885 8.92188 71.0573 9.14062 71.0156 9.35938C70.974 9.57812 70.8958 9.78646 70.7812 9.98438C70.8854 10.1198 70.9583 10.2708 71 10.4375C71.0417 10.5938 71.0781 10.75 71.1094 10.9062C71.1406 11.0625 71.1719 11.2135 71.2031 11.3594C71.2448 11.5052 71.3177 11.6302 71.4219 11.7344C71.5052 11.8281 71.599 11.9115 71.7031 11.9844C71.8177 12.0573 71.9219 12.1354 72.0156 12.2188C72.1094 12.2917 72.1875 12.3802 72.25 12.4844C72.3229 12.5885 72.3594 12.724 72.3594 12.8906C72.474 12.8802 72.6146 12.901 72.7812 12.9531C72.9479 12.9948 73.1146 13.0521 73.2812 13.125C73.4583 13.1875 73.6302 13.2552 73.7969 13.3281C73.9635 13.401 74.1042 13.4583 74.2188 13.5C74.3125 13.5312 74.3958 13.5833 74.4688 13.6562C74.5417 13.7292 74.625 13.7812 74.7188 13.8125C74.9583 13.8854 75.1979 13.9115 75.4375 13.8906C75.6875 13.8594 75.9323 13.8698 76.1719 13.9219C76.3594 13.9635 76.5104 14.0156 76.625 14.0781C76.75 14.1302 76.8646 14.1823 76.9688 14.2344C77.0833 14.2865 77.2083 14.3333 77.3438 14.375C77.4792 14.4062 77.6615 14.4219 77.8906 14.4219C77.974 14.4219 78.0625 14.4479 78.1562 14.5C78.25 14.5521 78.349 14.6042 78.4531 14.6562C78.5573 14.7083 78.6667 14.7604 78.7812 14.8125C78.9062 14.8542 79.0365 14.8646 79.1719 14.8438C79.3281 15 79.4688 15.1771 79.5938 15.375C79.7188 15.5625 79.8385 15.7552 79.9531 15.9531C80.0781 16.1406 80.2083 16.3281 80.3438 16.5156C80.4792 16.6927 80.6354 16.8594 80.8125 17.0156C80.8125 17.0677 80.8021 17.1146 80.7812 17.1562C80.7708 17.1875 80.7656 17.2292 80.7656 17.2812C80.7656 17.5 80.8177 17.6719 80.9219 17.7969C81.0365 17.9115 81.1354 18.0573 81.2188 18.2344C81.1979 18.3281 81.1875 18.4167 81.1875 18.5C81.1875 18.5833 81.1875 18.6667 81.1875 18.75C81.1875 19.1146 81.2292 19.4844 81.3125 19.8594C81.3958 20.224 81.4375 20.5885 81.4375 20.9531C81.4375 21.3177 81.4167 21.625 81.375 21.875C81.3333 22.1146 81.2708 22.3438 81.1875 22.5625C81.1042 22.7708 80.9948 22.9792 80.8594 23.1875C80.7344 23.3958 80.5781 23.6458 80.3906 23.9375C80.2552 24.125 80.1406 24.3333 80.0469 24.5625C79.9635 24.7917 79.8438 24.9844 79.6875 25.1406H79.4531V25.375C79.3698 25.4375 79.2708 25.4896 79.1562 25.5312C79.0521 25.5729 78.9531 25.625 78.8594 25.6875C78.5156 25.9167 78.2552 26.0885 78.0781 26.2031C77.901 26.3281 77.7292 26.4219 77.5625 26.4844C77.4062 26.5469 77.2188 26.5885 77 26.6094C76.7917 26.6406 76.4792 26.6771 76.0625 26.7188C75.8229 26.7396 75.5885 26.776 75.3594 26.8281C75.1406 26.8802 74.9167 26.9062 74.6875 26.9062C74.4688 26.9062 74.2917 26.8698 74.1562 26.7969C74.0312 26.7344 73.8802 26.6771 73.7031 26.625C73.5781 26.5938 73.4531 26.5729 73.3281 26.5625C73.2031 26.5521 73.0781 26.5417 72.9531 26.5312C72.8281 26.5208 72.7083 26.5052 72.5938 26.4844C72.4792 26.474 72.3698 26.4427 72.2656 26.3906C72.151 26.3385 72.0521 26.2708 71.9688 26.1875C71.8958 26.1146 71.8125 26.0469 71.7188 25.9844C71.6875 25.9635 71.6406 25.9375 71.5781 25.9062C71.526 25.8854 71.474 25.8594 71.4219 25.8281C71.3802 25.7969 71.3438 25.7604 71.3125 25.7188C71.2917 25.6771 71.2969 25.625 71.3281 25.5625C70.9635 25.5 70.6667 25.375 70.4375 25.1875C70.2083 24.9896 70 24.7708 69.8125 24.5312C69.6354 24.2812 69.4583 24.0312 69.2812 23.7812C69.1146 23.5208 68.901 23.2917 68.6406 23.0938C68.6406 23.0417 68.6458 23 68.6562 22.9688C68.6667 22.9375 68.6719 22.8958 68.6719 22.8438C68.6719 22.7083 68.6458 22.5729 68.5938 22.4375C68.5521 22.3021 68.5052 22.1719 68.4531 22.0469C68.401 21.9219 68.349 21.7969 68.2969 21.6719C68.2552 21.5469 68.2344 21.4271 68.2344 21.3125C68.2344 21.1458 68.2812 20.974 68.375 20.7969C68.4792 20.6094 68.6042 20.4427 68.75 20.2969C68.9062 20.1406 69.0729 20.0156 69.25 19.9219C69.4375 19.8177 69.6094 19.7656 69.7656 19.7656C69.9427 19.7656 70.1094 19.7969 70.2656 19.8594C70.4219 19.9219 70.5729 20 70.7188 20.0938C70.8646 20.1875 71.0052 20.2917 71.1406 20.4062C71.276 20.5208 71.4062 20.6302 71.5312 20.7344C71.5729 20.901 71.6406 21.0573 71.7344 21.2031C71.8281 21.349 71.9219 21.4948 72.0156 21.6406C72.1094 21.7865 72.1979 21.9375 72.2812 22.0938C72.3646 22.2396 72.4219 22.4062 72.4531 22.5938C72.6094 22.6458 72.7552 22.724 72.8906 22.8281C73.0365 22.9323 73.1771 23.0365 73.3125 23.1406C73.4583 23.2448 73.6042 23.3333 73.75 23.4062C73.8958 23.4792 74.0625 23.5156 74.25 23.5156C74.2604 23.5156 74.3646 23.4948 74.5625 23.4531C74.7604 23.4115 74.974 23.3646 75.2031 23.3125C75.4427 23.2604 75.6615 23.2135 75.8594 23.1719C76.0573 23.1302 76.1615 23.1042 76.1719 23.0938C76.2344 23.0625 76.2865 23.0156 76.3281 22.9531C76.3698 22.8906 76.4219 22.8333 76.4844 22.7812C76.5677 22.7292 76.651 22.7135 76.7344 22.7344C76.8281 22.7552 76.9167 22.7396 77 22.6875C77.125 22.625 77.2344 22.5312 77.3281 22.4062C77.4323 22.2708 77.5677 22.1927 77.7344 22.1719C77.7344 22.0573 77.7292 21.9427 77.7188 21.8281C77.7083 21.7031 77.7031 21.5833 77.7031 21.4688C77.7031 21.4375 77.7031 21.401 77.7031 21.3594C77.7031 21.3177 77.7135 21.2812 77.7344 21.25L77.9219 21.0156V20.7969C77.9219 20.7031 77.9531 20.6302 78.0156 20.5781C78.0781 20.5156 78.1094 20.4271 78.1094 20.3125C78.1094 20.2708 78.099 20.1979 78.0781 20.0938C78.0573 19.9896 78.0312 19.8854 78 19.7812C77.9688 19.6771 77.9375 19.5781 77.9062 19.4844C77.875 19.3906 77.849 19.3281 77.8281 19.2969L77.6094 19.1562C77.5781 19.0938 77.5677 19.0312 77.5781 18.9688C77.5885 18.8958 77.5677 18.8333 77.5156 18.7812L77.3125 18.6562C77.25 18.5729 77.2031 18.4896 77.1719 18.4062C77.1406 18.3125 77.0833 18.224 77 18.1406C76.8854 18.0365 76.7135 17.9375 76.4844 17.8438C76.2656 17.7396 76.026 17.651 75.7656 17.5781C75.5156 17.4948 75.2708 17.4323 75.0312 17.3906C74.7917 17.3385 74.5938 17.3125 74.4375 17.3125C74.3229 17.3125 74.2083 17.3229 74.0938 17.3438C73.9896 17.3542 73.8906 17.3854 73.7969 17.4375C73.6719 17.4062 73.5781 17.3698 73.5156 17.3281C73.4635 17.2865 73.4167 17.2448 73.375 17.2031C73.3333 17.1615 73.2917 17.1198 73.25 17.0781C73.2083 17.0365 73.1354 17 73.0312 16.9688C72.9375 16.9375 72.8021 16.9115 72.625 16.8906C72.4479 16.8698 72.2083 16.8594 71.9062 16.8594C71.6042 16.8594 71.2969 16.7604 70.9844 16.5625C70.6719 16.3646 70.3646 16.1302 70.0625 15.8594C69.7708 15.5781 69.5 15.2917 69.25 15C69 14.6979 68.7969 14.4427 68.6406 14.2344C68.6094 14.1823 68.5938 14.1146 68.5938 14.0312C68.5938 13.9375 68.5677 13.8646 68.5156 13.8125L68.3281 13.7188C68.2969 13.625 68.2656 13.5417 68.2344 13.4688C68.2135 13.3958 68.1354 13.3438 68 13.3125V13.2188C68 12.9896 67.9635 12.7708 67.8906 12.5625C67.8177 12.3542 67.7188 12.1562 67.5938 11.9688C67.6146 11.8854 67.625 11.8125 67.625 11.75C67.625 11.6771 67.625 11.599 67.625 11.5156C67.625 11.1302 67.5833 10.75 67.5 10.375C67.4271 9.98958 67.3906 9.60417 67.3906 9.21875C67.3906 9.11458 67.4167 9.02083 67.4688 8.9375C67.5312 8.85417 67.5729 8.75521 67.5938 8.64062C67.6771 8.36979 67.7396 8.08854 67.7812 7.79688C67.8333 7.49479 67.875 7.19792 67.9062 6.90625C68.1042 6.75 68.2604 6.60417 68.375 6.46875C68.5 6.33333 68.5469 6.13021 68.5156 5.85938C68.6406 5.78646 68.7552 5.70833 68.8594 5.625C68.9635 5.53125 69.0625 5.4375 69.1562 5.34375C69.1667 5.22917 69.1979 5.125 69.25 5.03125C69.3125 4.9375 69.3698 4.84375 69.4219 4.75C69.4844 4.65625 69.5365 4.5625 69.5781 4.46875C69.6302 4.36458 69.6615 4.25 69.6719 4.125C69.8177 4.01042 69.9688 3.90104 70.125 3.79688C70.2812 3.68229 70.4062 3.54688 70.5 3.39062C70.5417 3.39062 70.6562 3.33854 70.8438 3.23438C71.0417 3.13021 71.2604 3.01562 71.5 2.89062C71.7396 2.75521 71.9688 2.63021 72.1875 2.51562C72.4062 2.39062 72.5573 2.30729 72.6406 2.26562C72.7969 2.19271 72.9896 2.14062 73.2188 2.10938C73.4479 2.06771 73.6771 2.02604 73.9062 1.98438C74.1354 1.94271 74.349 1.89583 74.5469 1.84375C74.7552 1.79167 74.9219 1.71875 75.0469 1.625C75.3698 1.69792 75.7448 1.75 76.1719 1.78125C76.6094 1.8125 77.0417 1.85938 77.4688 1.92188C77.8958 1.98438 78.2969 2.08854 78.6719 2.23438C79.0573 2.36979 79.3646 2.58333 79.5938 2.875C79.8229 2.88542 80.0208 2.93229 80.1875 3.01562C80.3542 3.08854 80.5104 3.17708 80.6562 3.28125C80.8125 3.38542 80.9635 3.48958 81.1094 3.59375C81.2656 3.6875 81.4427 3.75521 81.6406 3.79688C81.6406 3.92188 81.6719 4.03125 81.7344 4.125L81.9531 4.21875C82.0156 4.32292 82.0677 4.4375 82.1094 4.5625C82.1615 4.67708 82.2031 4.79167 82.2344 4.90625C82.276 5.02083 82.3177 5.13542 82.3594 5.25C82.4115 5.36458 82.4792 5.46875 82.5625 5.5625C82.6146 5.61458 82.6719 5.66146 82.7344 5.70312C82.8073 5.73438 82.8594 5.78646 82.8906 5.85938C82.9115 5.92188 82.9115 5.98438 82.8906 6.04688C82.8698 6.09896 82.8594 6.15104 82.8594 6.20312L82.8906 6.26562L83.0781 6.48438C83.1198 6.64062 83.151 6.84375 83.1719 7.09375C83.2031 7.33333 83.224 7.58854 83.2344 7.85938C83.2552 8.13021 83.2708 8.39583 83.2812 8.65625C83.2917 8.90625 83.2969 9.11458 83.2969 9.28125ZM104.25 12.125C104.271 12.3646 104.245 12.599 104.172 12.8281C104.099 13.0573 104.062 13.2917 104.062 13.5312C104.062 13.9167 104.083 14.3073 104.125 14.7031C104.167 15.0885 104.188 15.4792 104.188 15.875C104.188 15.9583 104.167 16.1042 104.125 16.3125C104.083 16.5208 104.026 16.7604 103.953 17.0312C103.891 17.3021 103.818 17.5938 103.734 17.9062C103.661 18.2188 103.583 18.5156 103.5 18.7969C103.427 19.0781 103.354 19.3281 103.281 19.5469C103.219 19.7552 103.172 19.9062 103.141 20C102.995 20.3333 102.833 20.6615 102.656 20.9844C102.49 21.2969 102.37 21.6198 102.297 21.9531C101.995 22.224 101.693 22.4948 101.391 22.7656C101.099 23.0365 100.818 23.3177 100.547 23.6094C100.464 23.7031 100.391 23.8073 100.328 23.9219C100.276 24.0365 100.224 24.1562 100.172 24.2812C100.13 24.3958 100.083 24.5156 100.031 24.6406C99.9792 24.7552 99.9167 24.8594 99.8438 24.9531C99.6771 25.1615 99.474 25.3177 99.2344 25.4219C98.9948 25.526 98.7812 25.6458 98.5938 25.7812C98.5312 25.8229 98.474 25.875 98.4219 25.9375C98.3802 26 98.3281 26.0469 98.2656 26.0781C98.1198 26.1615 97.9688 26.224 97.8125 26.2656C97.6562 26.3177 97.4948 26.3646 97.3281 26.4062C97.1719 26.4583 97.0156 26.5104 96.8594 26.5625C96.7031 26.625 96.5521 26.7083 96.4062 26.8125C96.2917 26.7604 96.1719 26.7135 96.0469 26.6719C95.9219 26.6302 95.8073 26.5677 95.7031 26.4844C95.5573 26.5677 95.3906 26.6354 95.2031 26.6875C95.026 26.75 94.8333 26.7969 94.625 26.8281C94.4271 26.8698 94.2292 26.8958 94.0312 26.9062C93.8333 26.9271 93.6562 26.9375 93.5 26.9375C93.4167 26.9375 93.3229 26.9323 93.2188 26.9219C93.1146 26.9115 93.0052 26.8958 92.8906 26.875C92.776 26.8646 92.6615 26.8438 92.5469 26.8125C92.4427 26.7917 92.3542 26.7604 92.2812 26.7188C92.2604 26.7083 92.2344 26.6875 92.2031 26.6562C92.1823 26.6354 92.1562 26.6094 92.125 26.5781C92.0938 26.5573 92.0625 26.5469 92.0312 26.5469C92 26.5469 91.9792 26.5729 91.9688 26.625C91.6458 26.4792 91.3177 26.3438 90.9844 26.2188C90.6615 26.0938 90.3385 25.9479 90.0156 25.7812C89.7969 25.6667 89.5938 25.5312 89.4062 25.375C89.2292 25.2188 89.0469 25.0573 88.8594 24.8906C88.6823 24.7135 88.5 24.5469 88.3125 24.3906C88.1354 24.224 87.9427 24.0729 87.7344 23.9375C87.7031 23.7292 87.651 23.526 87.5781 23.3281C87.5052 23.1198 87.3906 22.9375 87.2344 22.7812C87.2135 22.6562 87.1719 22.5521 87.1094 22.4688C87.0469 22.3854 86.9792 22.3073 86.9062 22.2344C86.8333 22.1615 86.7656 22.0833 86.7031 22C86.651 21.9062 86.625 21.7812 86.625 21.625V21.5625L86.3906 21.4375C86.3385 21.2917 86.3073 21.1406 86.2969 20.9844C86.2865 20.8281 86.2552 20.6719 86.2031 20.5156C86.151 20.401 86.0938 20.2865 86.0312 20.1719C85.9688 20.0573 85.9219 19.9323 85.8906 19.7969C85.8385 19.599 85.8125 19.3958 85.8125 19.1875C85.8125 18.9688 85.8073 18.75 85.7969 18.5312C85.7969 18.3125 85.776 18.1042 85.7344 17.9062C85.6927 17.6979 85.6042 17.5 85.4688 17.3125C85.5312 17.1458 85.5625 16.9844 85.5625 16.8281C85.5625 16.5885 85.5312 16.3542 85.4688 16.125C85.4062 15.8958 85.375 15.6615 85.375 15.4219C85.375 15.2135 85.3906 15.0156 85.4219 14.8281C85.4531 14.6302 85.4688 14.4323 85.4688 14.2344C85.4688 13.9948 85.4635 13.7604 85.4531 13.5312C85.4427 13.3021 85.4375 13.0677 85.4375 12.8281C85.4375 12.5156 85.4427 12.2865 85.4531 12.1406C85.4635 11.9844 85.4844 11.8542 85.5156 11.75C85.5469 11.6354 85.5833 11.5156 85.625 11.3906C85.6771 11.2656 85.7344 11.0729 85.7969 10.8125C85.8281 10.6875 85.8438 10.5573 85.8438 10.4219C85.8438 10.276 85.8594 10.1302 85.8906 9.98438C86.0052 9.58854 86.1406 9.18229 86.2969 8.76562C86.4531 8.34896 86.5938 7.93229 86.7188 7.51562C86.7396 7.44271 86.7865 7.35938 86.8594 7.26562C86.9323 7.16146 87.0104 7.05729 87.0938 6.95312C87.1771 6.83854 87.2604 6.72396 87.3438 6.60938C87.4271 6.49479 87.4948 6.38021 87.5469 6.26562C87.5781 6.18229 87.5938 6.09896 87.5938 6.01562C87.5938 5.92188 87.6094 5.83333 87.6406 5.75C87.6719 5.6875 87.7188 5.64062 87.7812 5.60938C87.8542 5.57812 87.9167 5.53125 87.9688 5.46875C88.0521 5.30208 88.125 5.15625 88.1875 5.03125C88.25 4.89583 88.349 4.76562 88.4844 4.64062C88.5573 4.54688 88.6458 4.46354 88.75 4.39062C88.8646 4.30729 88.974 4.22396 89.0781 4.14062C89.1927 4.05729 89.2917 3.97396 89.375 3.89062C89.4688 3.79688 89.5417 3.69271 89.5938 3.57812C89.6354 3.57812 89.7292 3.54688 89.875 3.48438C90.0312 3.42188 90.2135 3.34375 90.4219 3.25C90.6302 3.14583 90.849 3.03646 91.0781 2.92188C91.3073 2.80729 91.5208 2.69792 91.7188 2.59375C91.9271 2.47917 92.1042 2.38542 92.25 2.3125C92.3958 2.22917 92.4844 2.17188 92.5156 2.14062C92.5677 2.16146 92.6146 2.17188 92.6562 2.17188C92.6979 2.17188 92.7448 2.17188 92.7969 2.17188C92.9635 2.17188 93.1146 2.16146 93.25 2.14062C93.3958 2.11979 93.5417 2.10938 93.6875 2.10938C93.9167 2.10938 94.1302 2.15104 94.3281 2.23438C94.526 2.31771 94.7292 2.35938 94.9375 2.35938C95.1042 2.35938 95.2604 2.33854 95.4062 2.29688C95.5521 2.25521 95.7083 2.23438 95.875 2.23438C96.0833 2.23438 96.276 2.29167 96.4531 2.40625C96.6406 2.52083 96.8281 2.60417 97.0156 2.65625C97.1094 2.6875 97.2135 2.71354 97.3281 2.73438C97.4427 2.74479 97.5573 2.75521 97.6719 2.76562C97.7969 2.77604 97.9115 2.79167 98.0156 2.8125C98.1198 2.82292 98.2031 2.84375 98.2656 2.875C98.3281 2.90625 98.3802 2.95833 98.4219 3.03125C98.474 3.09375 98.5312 3.15104 98.5938 3.20312C98.6562 3.23438 98.724 3.24479 98.7969 3.23438C98.8698 3.22396 98.9375 3.24479 99 3.29688C99.1146 3.36979 99.1823 3.43229 99.2031 3.48438C99.224 3.52604 99.25 3.57292 99.2812 3.625C99.3229 3.67708 99.3906 3.74479 99.4844 3.82812C99.5781 3.90104 99.7604 4 100.031 4.125C100.115 4.15625 100.193 4.19792 100.266 4.25C100.349 4.29167 100.443 4.3125 100.547 4.3125C100.766 4.57292 101 4.81771 101.25 5.04688C101.5 5.27604 101.745 5.51042 101.984 5.75L102.297 5.85938C102.359 5.93229 102.458 6.09896 102.594 6.35938C102.729 6.61979 102.865 6.90104 103 7.20312C103.146 7.49479 103.271 7.77604 103.375 8.04688C103.49 8.30729 103.547 8.47396 103.547 8.54688C103.547 8.70312 103.536 8.85417 103.516 9C103.495 9.14583 103.484 9.30208 103.484 9.46875C103.484 9.58333 103.49 9.69271 103.5 9.79688C103.51 9.90104 103.516 10.0156 103.516 10.1406C103.516 10.1719 103.531 10.2135 103.562 10.2656C103.604 10.3073 103.651 10.3542 103.703 10.4062C103.755 10.4583 103.807 10.5156 103.859 10.5781C103.911 10.6302 103.948 10.6771 103.969 10.7188C104 10.8333 104.016 10.9531 104.016 11.0781C104.016 11.2031 104.031 11.3281 104.062 11.4531C104.083 11.5469 104.12 11.651 104.172 11.7656C104.224 11.8698 104.25 11.9688 104.25 12.0625V12.125ZM101.047 15.3594C101.047 15.151 101.005 14.9635 100.922 14.7969C100.849 14.6198 100.797 14.4323 100.766 14.2344C100.786 14.1823 100.797 14.1354 100.797 14.0938C100.797 14.0417 100.797 13.9844 100.797 13.9219C100.797 13.724 100.755 13.5417 100.672 13.375C100.589 13.2083 100.547 13.026 100.547 12.8281C100.547 12.6302 100.562 12.4427 100.594 12.2656C100.625 12.0885 100.641 11.901 100.641 11.7031V10.8125C100.516 10.625 100.385 10.3854 100.25 10.0938C100.115 9.79167 99.9688 9.47396 99.8125 9.14062C99.6667 8.80729 99.5052 8.47396 99.3281 8.14062C99.151 7.79688 98.9531 7.5 98.7344 7.25C98.5156 6.98958 98.276 6.78646 98.0156 6.64062C97.7656 6.49479 97.4792 6.44271 97.1562 6.48438C96.8854 6.23438 96.5833 6.01562 96.25 5.82812C95.9167 5.63021 95.5677 5.53125 95.2031 5.53125C94.9323 5.53125 94.6354 5.5625 94.3125 5.625C94 5.67708 93.6875 5.75521 93.375 5.85938C93.0729 5.96354 92.7812 6.08854 92.5 6.23438C92.2188 6.36979 91.9792 6.52083 91.7812 6.6875C91.7083 6.73958 91.6302 6.77604 91.5469 6.79688C91.474 6.80729 91.4115 6.84375 91.3594 6.90625C91.3073 6.95833 91.2865 7.02604 91.2969 7.10938C91.3073 7.19271 91.2969 7.26562 91.2656 7.32812C91.2448 7.32812 91.1979 7.36458 91.125 7.4375C91.0521 7.5 90.9688 7.57292 90.875 7.65625C90.7917 7.73958 90.7135 7.82292 90.6406 7.90625C90.5781 7.97917 90.5417 8.02083 90.5312 8.03125C90.5104 8.08333 90.5104 8.125 90.5312 8.15625C90.5521 8.1875 90.5625 8.22917 90.5625 8.28125C90.5625 8.30208 90.5417 8.34896 90.5 8.42188C90.4583 8.49479 90.4115 8.57812 90.3594 8.67188C90.3073 8.76562 90.2552 8.85938 90.2031 8.95312C90.151 9.04688 90.1198 9.125 90.1094 9.1875C90.0885 9.33333 90.0885 9.47917 90.1094 9.625C90.1302 9.76042 90.1406 9.90104 90.1406 10.0469C90.1406 10.276 90.099 10.5052 90.0156 10.7344C89.9427 10.9635 89.8594 11.1979 89.7656 11.4375C89.6823 11.6667 89.599 11.9062 89.5156 12.1562C89.4427 12.3958 89.4062 12.6406 89.4062 12.8906C89.4062 13.0365 89.4219 13.1823 89.4531 13.3281C89.4844 13.4635 89.5 13.6042 89.5 13.75C89.5 13.9479 89.4531 14.1302 89.3594 14.2969C89.276 14.4635 89.2188 14.6458 89.1875 14.8438C89.2708 14.9688 89.3229 15.1042 89.3438 15.25C89.3646 15.3854 89.375 15.526 89.375 15.6719C89.375 15.8802 89.3646 16.0833 89.3438 16.2812C89.3229 16.4792 89.3125 16.6823 89.3125 16.8906C89.3125 17.1094 89.3177 17.3021 89.3281 17.4688C89.349 17.6354 89.3802 17.7969 89.4219 17.9531C89.4635 18.099 89.5156 18.2448 89.5781 18.3906C89.651 18.5365 89.7344 18.6979 89.8281 18.875C89.8802 18.9583 89.9323 19.0417 89.9844 19.125C90.0365 19.2083 90.0781 19.2969 90.1094 19.3906C90.1927 19.6198 90.2448 19.8594 90.2656 20.1094C90.2969 20.3594 90.3542 20.599 90.4375 20.8281C90.4583 20.901 90.4948 20.9635 90.5469 21.0156C90.599 21.0677 90.6458 21.1198 90.6875 21.1719C90.7396 21.224 90.7812 21.2812 90.8125 21.3438C90.8438 21.4062 90.8542 21.4792 90.8438 21.5625C90.9896 21.6146 91.099 21.6667 91.1719 21.7188C91.2552 21.7708 91.3906 21.7812 91.5781 21.75C91.6406 21.9479 91.7656 22.1354 91.9531 22.3125C92.151 22.4896 92.375 22.6458 92.625 22.7812C92.875 22.9062 93.125 23.0104 93.375 23.0938C93.6354 23.1667 93.8594 23.2031 94.0469 23.2031C94.1615 23.2031 94.2448 23.1771 94.2969 23.125C94.3594 23.0625 94.4167 22.9948 94.4688 22.9219C94.5312 22.849 94.5938 22.7917 94.6562 22.75C94.7292 22.6979 94.8333 22.6771 94.9688 22.6875C95.0312 22.625 95.099 22.5938 95.1719 22.5938C95.2656 22.5938 95.3438 22.6094 95.4062 22.6406C95.4792 22.6719 95.5573 22.6875 95.6406 22.6875C95.724 22.6875 95.8125 22.6615 95.9062 22.6094C96.0104 22.5573 96.1146 22.4948 96.2188 22.4219C96.3229 22.349 96.4271 22.2812 96.5312 22.2188C96.6354 22.1458 96.7344 22.099 96.8281 22.0781C96.9219 22.0469 97.0208 22.0417 97.125 22.0625C97.2396 22.0729 97.3438 22.0781 97.4375 22.0781H97.5625L97.75 21.8594C97.9167 21.8073 98.099 21.7604 98.2969 21.7188C98.4948 21.6771 98.6562 21.5833 98.7812 21.4375C98.9271 21.1146 99.0573 20.7708 99.1719 20.4062C99.2865 20.0312 99.4323 19.6927 99.6094 19.3906C99.776 19.099 99.9167 18.901 100.031 18.7969C100.156 18.6927 100.255 18.599 100.328 18.5156C100.401 18.4219 100.453 18.2917 100.484 18.125C100.526 17.9479 100.547 17.6354 100.547 17.1875C100.547 17.0938 100.562 17.0156 100.594 16.9531C100.635 16.8906 100.672 16.8281 100.703 16.7656C100.745 16.7031 100.776 16.6354 100.797 16.5625C100.818 16.4896 100.807 16.3958 100.766 16.2812C100.88 16.1667 100.953 16.0312 100.984 15.875C101.026 15.7083 101.047 15.5365 101.047 15.3594ZM124.484 22.2344C124.484 22.3594 124.427 22.4688 124.312 22.5625C124.208 22.6562 124.125 22.75 124.062 22.8438C124.01 22.9062 123.99 22.974 124 23.0469C124.01 23.1198 124 23.1927 123.969 23.2656C123.917 23.3177 123.854 23.349 123.781 23.3594C123.719 23.3698 123.672 23.401 123.641 23.4531C123.578 23.5365 123.521 23.6354 123.469 23.75C123.417 23.8646 123.359 23.9792 123.297 24.0938C123.245 24.1979 123.177 24.2969 123.094 24.3906C123.021 24.4844 122.927 24.5573 122.812 24.6094C122.75 24.6406 122.677 24.6615 122.594 24.6719C122.521 24.6719 122.443 24.6719 122.359 24.6719C122.141 24.6719 121.901 24.6354 121.641 24.5625C121.391 24.4896 121.193 24.3646 121.047 24.1875C120.984 24.1562 120.885 24.1198 120.75 24.0781C120.625 24.026 120.49 23.9792 120.344 23.9375C120.208 23.8854 120.078 23.8385 119.953 23.7969C119.828 23.7448 119.745 23.7031 119.703 23.6719C119.651 23.6198 119.604 23.5417 119.562 23.4375C119.521 23.3229 119.474 23.2292 119.422 23.1562C119.359 23.0729 119.286 23.0052 119.203 22.9531C119.12 22.901 119.052 22.8333 119 22.75C118.938 22.6562 118.896 22.5521 118.875 22.4375C118.865 22.3125 118.833 22.2031 118.781 22.1094C118.656 21.8385 118.49 21.5781 118.281 21.3281C118.073 21.0677 117.865 20.8177 117.656 20.5781C117.542 20.4427 117.38 20.2865 117.172 20.1094C116.964 19.9323 116.818 19.776 116.734 19.6406C116.703 19.5781 116.688 19.5104 116.688 19.4375C116.688 19.3646 116.672 19.2969 116.641 19.2344C116.578 19.0885 116.5 18.9583 116.406 18.8438C116.312 18.7188 116.25 18.5677 116.219 18.3906C116.094 18.2031 115.938 18.0417 115.75 17.9062C115.573 17.7604 115.422 17.5833 115.297 17.375C115.151 17.1458 114.984 16.9375 114.797 16.75C114.62 16.5521 114.443 16.3594 114.266 16.1719C114.099 15.974 113.948 15.7656 113.812 15.5469C113.677 15.3281 113.583 15.0729 113.531 14.7812C113.271 14.5104 112.99 14.2552 112.688 14.0156C112.385 13.7656 112.156 13.474 112 13.1406C111.917 12.9948 111.849 12.8698 111.797 12.7656C111.745 12.651 111.682 12.5521 111.609 12.4688C111.536 12.3854 111.448 12.3073 111.344 12.2344C111.25 12.1615 111.115 12.0833 110.938 12C110.906 12.1771 110.885 12.3594 110.875 12.5469C110.875 12.724 110.875 12.901 110.875 13.0781C110.875 13.6406 110.906 14.1979 110.969 14.75C111.031 15.2917 111.062 15.8438 111.062 16.4062C111.062 16.6042 111.042 16.7917 111 16.9688C110.958 17.1458 110.938 17.3229 110.938 17.5C110.938 17.7917 110.969 18.0781 111.031 18.3594C111.104 18.6302 111.141 18.9115 111.141 19.2031C111.141 19.2865 111.151 19.3542 111.172 19.4062C111.193 19.4583 111.219 19.5052 111.25 19.5469C111.281 19.5781 111.307 19.6146 111.328 19.6562C111.349 19.6875 111.359 19.7344 111.359 19.7969C111.359 19.9635 111.344 20.125 111.312 20.2812C111.281 20.4375 111.266 20.599 111.266 20.7656C111.266 20.849 111.281 20.9635 111.312 21.1094C111.354 21.2552 111.401 21.4062 111.453 21.5625C111.505 21.7188 111.557 21.8698 111.609 22.0156C111.672 22.151 111.729 22.2552 111.781 22.3281C111.698 22.5052 111.625 22.6719 111.562 22.8281C111.5 22.974 111.448 23.125 111.406 23.2812C111.375 23.4271 111.354 23.5833 111.344 23.75C111.333 23.9062 111.339 24.0833 111.359 24.2812C111.307 24.3646 111.188 24.4792 111 24.625C110.812 24.7604 110.604 24.8958 110.375 25.0312C110.146 25.1667 109.927 25.2865 109.719 25.3906C109.51 25.4844 109.365 25.5312 109.281 25.5312C109.188 25.5312 109.115 25.5208 109.062 25.5C109.01 25.4896 108.969 25.4688 108.938 25.4375C108.906 25.4062 108.87 25.375 108.828 25.3438C108.797 25.3021 108.745 25.2604 108.672 25.2188C108.609 25.1667 108.521 25.1354 108.406 25.125C108.302 25.1042 108.219 25.0677 108.156 25.0156C108.062 24.9323 107.958 24.7917 107.844 24.5938C107.74 24.3854 107.641 24.1667 107.547 23.9375C107.464 23.7083 107.391 23.4844 107.328 23.2656C107.266 23.0469 107.234 22.875 107.234 22.75C107.234 22.5833 107.276 22.4219 107.359 22.2656C107.453 22.1094 107.516 21.9583 107.547 21.8125C107.599 21.5417 107.641 21.2396 107.672 20.9062C107.714 20.5729 107.734 20.2604 107.734 19.9688C107.734 19.6771 107.672 19.3958 107.547 19.125C107.609 18.9375 107.651 18.7448 107.672 18.5469C107.693 18.3385 107.703 18.1406 107.703 17.9531C107.703 17.5469 107.661 17.1146 107.578 16.6562C107.495 16.1875 107.349 15.776 107.141 15.4219C107.151 15.2448 107.182 15.0781 107.234 14.9219C107.297 14.7552 107.359 14.5938 107.422 14.4375C107.484 14.2812 107.547 14.125 107.609 13.9688C107.672 13.8021 107.714 13.6354 107.734 13.4688C107.786 13.2083 107.797 12.9531 107.766 12.7031C107.745 12.4531 107.734 12.2083 107.734 11.9688C107.734 11.8333 107.745 11.7188 107.766 11.625C107.786 11.5208 107.823 11.4115 107.875 11.2969C107.854 11.151 107.812 11.0104 107.75 10.875C107.698 10.7396 107.661 10.599 107.641 10.4531C107.62 10.2969 107.615 10.1406 107.625 9.98438C107.635 9.81771 107.641 9.64583 107.641 9.46875C107.641 9.27083 107.625 9.08333 107.594 8.90625C107.562 8.72917 107.547 8.54167 107.547 8.34375C107.547 8.1875 107.578 8.04167 107.641 7.90625C107.703 7.76042 107.734 7.60938 107.734 7.45312C107.734 7.08854 107.698 6.72396 107.625 6.35938C107.552 5.98438 107.516 5.61458 107.516 5.25C107.516 4.98958 107.609 4.75 107.797 4.53125C107.995 4.30208 108.188 4.11458 108.375 3.96875C109.094 4.05208 109.708 4.27083 110.219 4.625C110.74 4.97917 111.089 5.51562 111.266 6.23438C111.276 6.30729 111.297 6.35938 111.328 6.39062C111.359 6.41146 111.391 6.42708 111.422 6.4375C111.464 6.4375 111.505 6.44271 111.547 6.45312C111.589 6.46354 111.63 6.48958 111.672 6.53125C111.745 6.61458 111.781 6.70312 111.781 6.79688C111.792 6.89062 111.823 6.97917 111.875 7.0625C112.042 7.26042 112.156 7.38021 112.219 7.42188C112.292 7.45312 112.349 7.48438 112.391 7.51562C112.443 7.54688 112.5 7.61979 112.562 7.73438C112.635 7.83854 112.755 8.0625 112.922 8.40625C113.078 8.5625 113.219 8.73438 113.344 8.92188C113.479 9.09896 113.609 9.28125 113.734 9.46875C113.87 9.65625 114.01 9.83854 114.156 10.0156C114.302 10.1823 114.469 10.3281 114.656 10.4531C114.677 10.5885 114.714 10.7135 114.766 10.8281C114.818 10.9427 114.854 11.0677 114.875 11.2031C114.917 11.276 115.01 11.401 115.156 11.5781C115.312 11.7448 115.469 11.9219 115.625 12.1094C115.792 12.2865 115.938 12.4531 116.062 12.6094C116.188 12.7552 116.25 12.8385 116.25 12.8594C116.25 12.901 116.271 12.9219 116.312 12.9219C116.458 12.9844 116.583 13.0677 116.688 13.1719C116.802 13.276 116.922 13.375 117.047 13.4688C117.182 13.9375 117.406 14.3438 117.719 14.6875C118.031 15.0312 118.385 15.3385 118.781 15.6094C118.792 15.724 118.823 15.8281 118.875 15.9219C118.927 16.0052 118.984 16.0885 119.047 16.1719C119.12 16.2448 119.188 16.3229 119.25 16.4062C119.323 16.4896 119.38 16.5781 119.422 16.6719C119.453 16.7344 119.469 16.7969 119.469 16.8594C119.469 16.9219 119.484 16.9844 119.516 17.0469C119.547 17.1198 119.594 17.1771 119.656 17.2188C119.729 17.2604 119.792 17.3125 119.844 17.375C119.885 17.4479 119.917 17.5365 119.938 17.6406C119.969 17.7344 120 17.8333 120.031 17.9375C120.073 18.0312 120.125 18.1146 120.188 18.1875C120.25 18.25 120.339 18.2865 120.453 18.2969C120.516 18.1406 120.547 17.9583 120.547 17.75C120.547 17.5312 120.521 17.3177 120.469 17.1094C120.417 16.901 120.354 16.6927 120.281 16.4844C120.219 16.2656 120.161 16.0521 120.109 15.8438C120.057 15.6354 120.031 15.4219 120.031 15.2031C120.031 15.0573 120.068 14.9219 120.141 14.7969C120.214 14.6719 120.25 14.5365 120.25 14.3906C120.25 14.2448 120.219 14.1042 120.156 13.9688C120.094 13.8229 120.052 13.6875 120.031 13.5625C119.99 13.3229 119.969 13.0573 119.969 12.7656C119.979 12.4635 119.979 12.1615 119.969 11.8594C119.958 11.5573 119.927 11.2656 119.875 10.9844C119.833 10.7031 119.745 10.4635 119.609 10.2656C119.63 10.2031 119.641 10.1406 119.641 10.0781C119.641 10.0156 119.641 9.95312 119.641 9.89062C119.641 9.61979 119.62 9.34375 119.578 9.0625C119.536 8.77083 119.516 8.47917 119.516 8.1875C119.516 7.97917 119.536 7.77083 119.578 7.5625C119.62 7.34375 119.708 7.13542 119.844 6.9375C119.812 6.72917 119.74 6.55208 119.625 6.40625C119.521 6.26042 119.422 6.09896 119.328 5.92188C119.328 5.86979 119.333 5.82292 119.344 5.78125C119.354 5.72917 119.359 5.67708 119.359 5.625C119.359 5.52083 119.344 5.41146 119.312 5.29688C119.281 5.18229 119.245 5.07292 119.203 4.96875C119.172 4.85417 119.141 4.73958 119.109 4.625C119.089 4.51042 119.083 4.39583 119.094 4.28125V4.0625L119.203 3.96875C119.203 3.86458 119.198 3.77083 119.188 3.6875C119.177 3.60417 119.172 3.51562 119.172 3.42188C119.172 3.24479 119.245 3.07292 119.391 2.90625C119.547 2.72917 119.729 2.57292 119.938 2.4375C120.146 2.29167 120.359 2.17708 120.578 2.09375C120.807 2 121 1.95312 121.156 1.95312C121.26 1.95312 121.365 1.97917 121.469 2.03125C121.573 2.08333 121.672 2.14062 121.766 2.20312C121.87 2.26562 121.969 2.32812 122.062 2.39062C122.167 2.45312 122.276 2.5 122.391 2.53125C122.495 2.77083 122.635 2.97917 122.812 3.15625C122.99 3.32292 123.13 3.51562 123.234 3.73438C123.276 3.83854 123.297 3.95833 123.297 4.09375C123.307 4.21875 123.312 4.35417 123.312 4.5C123.312 4.63542 123.318 4.77604 123.328 4.92188C123.349 5.05729 123.391 5.1875 123.453 5.3125C123.391 5.39583 123.349 5.5 123.328 5.625C123.307 5.73958 123.297 5.86458 123.297 6C123.297 6.13542 123.302 6.27083 123.312 6.40625C123.323 6.53125 123.328 6.64583 123.328 6.75C123.328 6.83333 123.312 6.90104 123.281 6.95312C123.25 7.00521 123.234 7.07292 123.234 7.15625C123.234 7.22917 123.25 7.28646 123.281 7.32812C123.312 7.35938 123.328 7.40104 123.328 7.45312C123.328 7.54688 123.302 7.65625 123.25 7.78125C123.198 7.89583 123.161 8 123.141 8.09375C123.099 8.27083 123.073 8.44792 123.062 8.625C123.062 8.79167 123.062 8.95312 123.062 9.10938C123.062 9.60938 123.115 10.0833 123.219 10.5312C123.323 10.9792 123.401 11.4375 123.453 11.9062C123.474 12.2292 123.484 12.5521 123.484 12.875C123.484 13.1875 123.479 13.5052 123.469 13.8281C123.469 14.1406 123.469 14.4531 123.469 14.7656C123.479 15.0781 123.505 15.3906 123.547 15.7031C123.589 16.0781 123.635 16.3802 123.688 16.6094C123.75 16.8385 123.807 17.0625 123.859 17.2812C123.911 17.4896 123.958 17.724 124 17.9844C124.042 18.2448 124.062 18.5938 124.062 19.0312C124.062 19.3229 124.094 19.6094 124.156 19.8906C124.219 20.1615 124.25 20.4427 124.25 20.7344C124.25 20.9219 124.286 21.1042 124.359 21.2812C124.443 21.4479 124.484 21.625 124.484 21.8125V21.9219L124.375 22.1094C124.448 22.1094 124.484 22.151 124.484 22.2344Z" fill="black"/>
</svg>
