<svg width="30" height="30" viewBox="0 0 30 30" fill="none" xmlns="http://www.w3.org/2000/svg">
<path fill-rule="evenodd" clip-rule="evenodd" d="M2.06234 12.9148C10.1154 8.68111 15.4854 5.89 18.1722 4.54148C25.8438 0.691162 27.4379 0.022321 28.4769 0.000235481C28.7054 -0.00462199 29.2163 0.063716 29.5473 0.38778C29.8268 0.661414 29.9037 1.03105 29.9405 1.29049C29.9773 1.54992 30.0231 2.14092 29.9867 2.60271C29.5709 7.8735 27.7721 20.6643 26.857 26.5677C26.4697 29.0656 25.7073 29.9032 24.9691 29.9851C23.3649 30.1633 22.1467 28.7059 20.593 27.4769C18.1617 25.5538 16.7882 24.3566 14.4282 22.48C11.7008 20.3113 13.4688 19.1193 15.0232 17.1712C15.4299 16.6614 22.4981 8.90377 22.6349 8.20002C22.652 8.11201 22.6679 7.78393 22.5063 7.6107C22.3448 7.43746 22.1064 7.4967 21.9344 7.54381C21.6905 7.6106 17.8065 10.7084 10.2823 16.8371C9.17983 17.7506 8.18124 18.1957 7.28655 18.1723C6.30022 18.1466 4.40291 17.4994 2.99246 16.9462C1.26249 16.2676 -0.112459 15.9088 0.00726778 14.7564C0.0696291 14.1562 0.754654 13.5423 2.06234 12.9148Z" fill="white"/>
</svg>
